<mxfile>
    <diagram id="iFImFDDFF8mhAghguGQM" name="第 1 页">
        <mxGraphModel dx="548" dy="570" grid="0" gridSize="10" guides="1" tooltips="1" connect="1" arrows="1" fold="1" page="1" pageScale="1" pageWidth="827" pageHeight="1169" background="#F1FAEE" math="0" shadow="0">
            <root>
                <mxCell id="0"/>
                <mxCell id="1" parent="0"/>
                <mxCell id="4" value="用户" style="whiteSpace=wrap;html=1;fillColor=#A8DADC;strokeColor=#457B9D;fontColor=#1D3557;" parent="1" vertex="1">
                    <mxGeometry x="219" y="191" width="60" height="30" as="geometry"/>
                </mxCell>
                <mxCell id="6" value="用户ID" style="ellipse;whiteSpace=wrap;html=1;fillColor=#A8DADC;strokeColor=#457B9D;fontColor=#1D3557;" parent="1" vertex="1">
                    <mxGeometry x="219" y="102" width="70" height="40" as="geometry"/>
                </mxCell>
                <mxCell id="7" value="账号" style="ellipse;whiteSpace=wrap;html=1;fillColor=#A8DADC;strokeColor=#457B9D;fontColor=#1D3557;" parent="1" vertex="1">
                    <mxGeometry x="310" y="102" width="70" height="40" as="geometry"/>
                </mxCell>
                <mxCell id="8" value="密码" style="ellipse;whiteSpace=wrap;html=1;fillColor=#A8DADC;strokeColor=#457B9D;fontColor=#1D3557;" parent="1" vertex="1">
                    <mxGeometry x="97" y="110" width="70" height="40" as="geometry"/>
                </mxCell>
                <mxCell id="9" value="头像URL" style="ellipse;whiteSpace=wrap;html=1;fillColor=#A8DADC;strokeColor=#457B9D;fontColor=#1D3557;" parent="1" vertex="1">
                    <mxGeometry x="83" y="186" width="70" height="40" as="geometry"/>
                </mxCell>
                <mxCell id="11" value="介绍" style="ellipse;whiteSpace=wrap;html=1;fillColor=#A8DADC;strokeColor=#457B9D;fontColor=#1D3557;" parent="1" vertex="1">
                    <mxGeometry x="169" y="281" width="70" height="40" as="geometry"/>
                </mxCell>
                <mxCell id="14" value="昵称" style="ellipse;whiteSpace=wrap;html=1;fillColor=#A8DADC;strokeColor=#457B9D;fontColor=#1D3557;" parent="1" vertex="1">
                    <mxGeometry x="260" y="283" width="70" height="40" as="geometry"/>
                </mxCell>
                <mxCell id="15" value="" style="endArrow=none;html=1;entryX=0.5;entryY=1;entryDx=0;entryDy=0;exitX=0.5;exitY=0;exitDx=0;exitDy=0;strokeColor=#457B9D;fontColor=#1D3557;fillColor=#A8DADC;labelBackgroundColor=#F1FAEE;" parent="1" source="14" target="4" edge="1">
                    <mxGeometry width="50" height="50" relative="1" as="geometry">
                        <mxPoint x="239" y="381" as="sourcePoint"/>
                        <mxPoint x="289" y="331" as="targetPoint"/>
                    </mxGeometry>
                </mxCell>
                <mxCell id="19" value="" style="endArrow=none;html=1;entryX=0.5;entryY=1;entryDx=0;entryDy=0;strokeColor=#457B9D;fontColor=#1D3557;exitX=0.5;exitY=0;exitDx=0;exitDy=0;fillColor=#A8DADC;labelBackgroundColor=#F1FAEE;" parent="1" source="11" target="4" edge="1">
                    <mxGeometry width="50" height="50" relative="1" as="geometry">
                        <mxPoint x="269.25126265847075" y="276.85786437626894" as="sourcePoint"/>
                        <mxPoint x="244" y="231" as="targetPoint"/>
                    </mxGeometry>
                </mxCell>
                <mxCell id="22" value="" style="endArrow=none;html=1;entryX=0;entryY=0.5;entryDx=0;entryDy=0;strokeColor=#457B9D;fontColor=#1D3557;fillColor=#A8DADC;labelBackgroundColor=#F1FAEE;" parent="1" source="9" target="4" edge="1">
                    <mxGeometry width="50" height="50" relative="1" as="geometry">
                        <mxPoint x="159" y="241" as="sourcePoint"/>
                        <mxPoint x="209" y="191" as="targetPoint"/>
                    </mxGeometry>
                </mxCell>
                <mxCell id="24" value="" style="endArrow=none;html=1;exitX=0;exitY=0.25;exitDx=0;exitDy=0;entryX=1;entryY=1;entryDx=0;entryDy=0;strokeColor=#457B9D;fontColor=#1D3557;fillColor=#A8DADC;labelBackgroundColor=#F1FAEE;" parent="1" source="4" target="8" edge="1">
                    <mxGeometry width="50" height="50" relative="1" as="geometry">
                        <mxPoint x="169" y="191" as="sourcePoint"/>
                        <mxPoint x="219" y="141" as="targetPoint"/>
                    </mxGeometry>
                </mxCell>
                <mxCell id="26" value="" style="endArrow=none;html=1;entryX=0.5;entryY=1;entryDx=0;entryDy=0;exitX=0.5;exitY=0;exitDx=0;exitDy=0;strokeColor=#457B9D;fontColor=#1D3557;fillColor=#A8DADC;labelBackgroundColor=#F1FAEE;" parent="1" source="4" target="6" edge="1">
                    <mxGeometry width="50" height="50" relative="1" as="geometry">
                        <mxPoint x="229" y="191" as="sourcePoint"/>
                        <mxPoint x="279" y="141" as="targetPoint"/>
                    </mxGeometry>
                </mxCell>
                <mxCell id="27" value="" style="endArrow=none;html=1;entryX=0.5;entryY=1;entryDx=0;entryDy=0;exitX=0.5;exitY=0;exitDx=0;exitDy=0;strokeColor=#457B9D;fontColor=#1D3557;fillColor=#A8DADC;labelBackgroundColor=#F1FAEE;" parent="1" source="4" target="7" edge="1">
                    <mxGeometry width="50" height="50" relative="1" as="geometry">
                        <mxPoint x="89" y="501" as="sourcePoint"/>
                        <mxPoint x="139" y="451" as="targetPoint"/>
                    </mxGeometry>
                </mxCell>
                <mxCell id="35" value="文章" style="whiteSpace=wrap;html=1;fillColor=#A8DADC;strokeColor=#457B9D;fontColor=#1D3557;" parent="1" vertex="1">
                    <mxGeometry x="582" y="186" width="60" height="30" as="geometry"/>
                </mxCell>
                <mxCell id="36" value="文章ID" style="ellipse;whiteSpace=wrap;html=1;fillColor=#A8DADC;strokeColor=#457B9D;fontColor=#1D3557;" parent="1" vertex="1">
                    <mxGeometry x="558" y="97" width="70" height="40" as="geometry"/>
                </mxCell>
                <mxCell id="37" value="标题" style="ellipse;whiteSpace=wrap;html=1;fillColor=#A8DADC;strokeColor=#457B9D;fontColor=#1D3557;" parent="1" vertex="1">
                    <mxGeometry x="645" y="97" width="70" height="40" as="geometry"/>
                </mxCell>
                <mxCell id="38" value="发布时间" style="ellipse;whiteSpace=wrap;html=1;fillColor=#A8DADC;strokeColor=#457B9D;fontColor=#1D3557;" parent="1" vertex="1">
                    <mxGeometry x="702" y="145" width="70" height="40" as="geometry"/>
                </mxCell>
                <mxCell id="39" value="作者" style="ellipse;whiteSpace=wrap;html=1;fillColor=#A8DADC;strokeColor=#457B9D;fontColor=#1D3557;" parent="1" vertex="1">
                    <mxGeometry x="698" y="202" width="70" height="40" as="geometry"/>
                </mxCell>
                <mxCell id="40" value="介绍" style="ellipse;whiteSpace=wrap;html=1;fillColor=#A8DADC;strokeColor=#457B9D;fontColor=#1D3557;" parent="1" vertex="1">
                    <mxGeometry x="537" y="257" width="70" height="40" as="geometry"/>
                </mxCell>
                <mxCell id="41" value="观看数量" style="ellipse;whiteSpace=wrap;html=1;fillColor=#A8DADC;strokeColor=#457B9D;fontColor=#1D3557;" parent="1" vertex="1">
                    <mxGeometry x="632" y="257" width="70" height="40" as="geometry"/>
                </mxCell>
                <mxCell id="42" value="" style="endArrow=none;html=1;entryX=0.5;entryY=1;entryDx=0;entryDy=0;exitX=0;exitY=0;exitDx=0;exitDy=0;strokeColor=#457B9D;fontColor=#1D3557;fillColor=#A8DADC;labelBackgroundColor=#F1FAEE;" parent="1" source="41" target="35" edge="1">
                    <mxGeometry width="50" height="50" relative="1" as="geometry">
                        <mxPoint x="602" y="376" as="sourcePoint"/>
                        <mxPoint x="652" y="326" as="targetPoint"/>
                    </mxGeometry>
                </mxCell>
                <mxCell id="43" value="" style="endArrow=none;html=1;entryX=0.5;entryY=1;entryDx=0;entryDy=0;strokeColor=#457B9D;fontColor=#1D3557;fillColor=#A8DADC;labelBackgroundColor=#F1FAEE;" parent="1" source="40" target="35" edge="1">
                    <mxGeometry width="50" height="50" relative="1" as="geometry">
                        <mxPoint x="632.2512626584708" y="271.85786437626894" as="sourcePoint"/>
                        <mxPoint x="607" y="226" as="targetPoint"/>
                    </mxGeometry>
                </mxCell>
                <mxCell id="44" value="" style="endArrow=none;html=1;entryX=1;entryY=0.5;entryDx=0;entryDy=0;strokeColor=#457B9D;fontColor=#1D3557;fillColor=#A8DADC;labelBackgroundColor=#F1FAEE;" parent="1" source="39" target="35" edge="1">
                    <mxGeometry width="50" height="50" relative="1" as="geometry">
                        <mxPoint x="522" y="236" as="sourcePoint"/>
                        <mxPoint x="572" y="186" as="targetPoint"/>
                    </mxGeometry>
                </mxCell>
                <mxCell id="45" value="" style="endArrow=none;html=1;entryX=0;entryY=1;entryDx=0;entryDy=0;strokeColor=#457B9D;fontColor=#1D3557;fillColor=#A8DADC;labelBackgroundColor=#F1FAEE;" parent="1" target="38" edge="1">
                    <mxGeometry width="50" height="50" relative="1" as="geometry">
                        <mxPoint x="642" y="201" as="sourcePoint"/>
                        <mxPoint x="582" y="136" as="targetPoint"/>
                    </mxGeometry>
                </mxCell>
                <mxCell id="46" value="" style="endArrow=none;html=1;entryX=0.5;entryY=1;entryDx=0;entryDy=0;exitX=0.5;exitY=0;exitDx=0;exitDy=0;strokeColor=#457B9D;fontColor=#1D3557;fillColor=#A8DADC;labelBackgroundColor=#F1FAEE;" parent="1" source="35" target="36" edge="1">
                    <mxGeometry width="50" height="50" relative="1" as="geometry">
                        <mxPoint x="592" y="186" as="sourcePoint"/>
                        <mxPoint x="642" y="136" as="targetPoint"/>
                    </mxGeometry>
                </mxCell>
                <mxCell id="47" value="" style="endArrow=none;html=1;entryX=0.5;entryY=1;entryDx=0;entryDy=0;exitX=0.5;exitY=0;exitDx=0;exitDy=0;strokeColor=#457B9D;fontColor=#1D3557;fillColor=#A8DADC;labelBackgroundColor=#F1FAEE;" parent="1" source="35" target="37" edge="1">
                    <mxGeometry width="50" height="50" relative="1" as="geometry">
                        <mxPoint x="452" y="496" as="sourcePoint"/>
                        <mxPoint x="502" y="446" as="targetPoint"/>
                    </mxGeometry>
                </mxCell>
                <mxCell id="48" value="QQ" style="ellipse;whiteSpace=wrap;html=1;fillColor=#A8DADC;strokeColor=#457B9D;fontColor=#1D3557;" parent="1" vertex="1">
                    <mxGeometry x="335" y="189" width="70" height="37" as="geometry"/>
                </mxCell>
                <mxCell id="49" value="" style="endArrow=none;html=1;entryX=1;entryY=0.5;entryDx=0;entryDy=0;exitX=0;exitY=0.5;exitDx=0;exitDy=0;strokeColor=#457B9D;fontColor=#1D3557;fillColor=#A8DADC;labelBackgroundColor=#F1FAEE;" parent="1" source="48" target="4" edge="1">
                    <mxGeometry width="50" height="50" relative="1" as="geometry">
                        <mxPoint x="320" y="356" as="sourcePoint"/>
                        <mxPoint x="330" y="196" as="targetPoint"/>
                    </mxGeometry>
                </mxCell>
                <mxCell id="50" value="Text" style="text;html=1;align=center;verticalAlign=middle;resizable=0;points=[];autosize=1;fillColor=#A8DADC;strokeColor=#457B9D;fontColor=#1D3557;" parent="1" vertex="1">
                    <mxGeometry x="495" y="313" width="40" height="20" as="geometry"/>
                </mxCell>
                <mxCell id="51" value="文章类型" style="ellipse;whiteSpace=wrap;html=1;fillColor=#A8DADC;strokeColor=#457B9D;fontColor=#1D3557;" parent="1" vertex="1">
                    <mxGeometry x="486" y="120.5" width="70" height="40" as="geometry"/>
                </mxCell>
                <mxCell id="52" value="" style="endArrow=none;html=1;entryX=0.5;entryY=1;entryDx=0;entryDy=0;exitX=0;exitY=0.5;exitDx=0;exitDy=0;strokeColor=#457B9D;fontColor=#1D3557;fillColor=#A8DADC;labelBackgroundColor=#F1FAEE;" parent="1" source="35" target="51" edge="1">
                    <mxGeometry width="50" height="50" relative="1" as="geometry">
                        <mxPoint x="540" y="209.5" as="sourcePoint"/>
                        <mxPoint x="570" y="159.5" as="targetPoint"/>
                    </mxGeometry>
                </mxCell>
                <mxCell id="53" value="空间类型" style="ellipse;whiteSpace=wrap;html=1;fillColor=#A8DADC;strokeColor=#457B9D;fontColor=#1D3557;" parent="1" vertex="1">
                    <mxGeometry x="472" y="199" width="70" height="40" as="geometry"/>
                </mxCell>
                <mxCell id="54" value="" style="endArrow=none;html=1;entryX=1;entryY=0.5;entryDx=0;entryDy=0;exitX=0;exitY=0.5;exitDx=0;exitDy=0;strokeColor=#457B9D;fontColor=#1D3557;fillColor=#A8DADC;labelBackgroundColor=#F1FAEE;" parent="1" source="35" target="53" edge="1">
                    <mxGeometry width="50" height="50" relative="1" as="geometry">
                        <mxPoint x="515" y="263" as="sourcePoint"/>
                        <mxPoint x="545" y="213" as="targetPoint"/>
                    </mxGeometry>
                </mxCell>
                <mxCell id="cIttYglj0ijw0yKCPZpT-55" value="用户" style="whiteSpace=wrap;html=1;fillColor=#A8DADC;strokeColor=#457B9D;fontColor=#1D3557;" parent="1" vertex="1">
                    <mxGeometry x="119" y="422" width="60" height="30" as="geometry"/>
                </mxCell>
                <mxCell id="cIttYglj0ijw0yKCPZpT-58" value="编辑" style="rhombus;whiteSpace=wrap;html=1;fillColor=#A8DADC;strokeColor=#457B9D;fontColor=#1D3557;" parent="1" vertex="1">
                    <mxGeometry x="244" y="413" width="80" height="48" as="geometry"/>
                </mxCell>
                <mxCell id="cIttYglj0ijw0yKCPZpT-59" value="文章" style="whiteSpace=wrap;html=1;fillColor=#A8DADC;strokeColor=#457B9D;fontColor=#1D3557;" parent="1" vertex="1">
                    <mxGeometry x="371" y="422" width="60" height="30" as="geometry"/>
                </mxCell>
                <mxCell id="cIttYglj0ijw0yKCPZpT-60" value="空间" style="whiteSpace=wrap;html=1;fillColor=#A8DADC;strokeColor=#457B9D;fontColor=#1D3557;" parent="1" vertex="1">
                    <mxGeometry x="119" y="570" width="60" height="30" as="geometry"/>
                </mxCell>
                <mxCell id="cIttYglj0ijw0yKCPZpT-61" value="权限（空间）" style="whiteSpace=wrap;html=1;fillColor=#A8DADC;strokeColor=#457B9D;fontColor=#1D3557;" parent="1" vertex="1">
                    <mxGeometry x="508" y="568" width="60" height="30" as="geometry"/>
                </mxCell>
                <mxCell id="cIttYglj0ijw0yKCPZpT-63" value="创建" style="rhombus;whiteSpace=wrap;html=1;fillColor=#A8DADC;strokeColor=#457B9D;fontColor=#1D3557;" parent="1" vertex="1">
                    <mxGeometry x="109" y="480" width="80" height="48" as="geometry"/>
                </mxCell>
                <mxCell id="cIttYglj0ijw0yKCPZpT-71" value="" style="endArrow=none;html=1;strokeColor=#457B9D;fillColor=#A8DADC;fontColor=#1D3557;exitX=1;exitY=0.5;exitDx=0;exitDy=0;labelBackgroundColor=#F1FAEE;" parent="1" source="cIttYglj0ijw0yKCPZpT-55" target="cIttYglj0ijw0yKCPZpT-58" edge="1">
                    <mxGeometry width="50" height="50" relative="1" as="geometry">
                        <mxPoint x="283" y="430" as="sourcePoint"/>
                        <mxPoint x="333" y="380" as="targetPoint"/>
                    </mxGeometry>
                </mxCell>
                <mxCell id="cIttYglj0ijw0yKCPZpT-72" value="n" style="text;html=1;strokeColor=none;fillColor=none;align=center;verticalAlign=middle;whiteSpace=wrap;rounded=0;sketch=0;fontColor=#1D3557;" parent="1" vertex="1">
                    <mxGeometry x="192" y="419" width="40" height="20" as="geometry"/>
                </mxCell>
                <mxCell id="cIttYglj0ijw0yKCPZpT-73" value="" style="endArrow=none;html=1;strokeColor=#457B9D;fillColor=#A8DADC;fontColor=#1D3557;exitX=1;exitY=0.5;exitDx=0;exitDy=0;labelBackgroundColor=#F1FAEE;" parent="1" source="cIttYglj0ijw0yKCPZpT-58" target="cIttYglj0ijw0yKCPZpT-59" edge="1">
                    <mxGeometry width="50" height="50" relative="1" as="geometry">
                        <mxPoint x="312.5" y="401" as="sourcePoint"/>
                        <mxPoint x="377.5" y="401" as="targetPoint"/>
                    </mxGeometry>
                </mxCell>
                <mxCell id="cIttYglj0ijw0yKCPZpT-74" value="1" style="text;html=1;strokeColor=none;fillColor=none;align=center;verticalAlign=middle;whiteSpace=wrap;rounded=0;sketch=0;fontColor=#1D3557;" parent="1" vertex="1">
                    <mxGeometry x="328" y="413" width="40" height="20" as="geometry"/>
                </mxCell>
                <mxCell id="cIttYglj0ijw0yKCPZpT-77" value="" style="endArrow=none;html=1;strokeColor=#457B9D;fillColor=#A8DADC;fontColor=#1D3557;exitX=0.5;exitY=1;exitDx=0;exitDy=0;entryX=0.5;entryY=0;entryDx=0;entryDy=0;labelBackgroundColor=#F1FAEE;" parent="1" source="cIttYglj0ijw0yKCPZpT-55" target="cIttYglj0ijw0yKCPZpT-63" edge="1">
                    <mxGeometry width="50" height="50" relative="1" as="geometry">
                        <mxPoint x="156" y="465" as="sourcePoint"/>
                        <mxPoint x="149" y="474" as="targetPoint"/>
                    </mxGeometry>
                </mxCell>
                <mxCell id="cIttYglj0ijw0yKCPZpT-78" value="1" style="text;html=1;strokeColor=none;fillColor=none;align=center;verticalAlign=middle;whiteSpace=wrap;rounded=0;sketch=0;fontColor=#1D3557;" parent="1" vertex="1">
                    <mxGeometry x="139" y="460" width="40" height="20" as="geometry"/>
                </mxCell>
                <mxCell id="cIttYglj0ijw0yKCPZpT-79" value="n" style="text;html=1;strokeColor=none;fillColor=none;align=center;verticalAlign=middle;whiteSpace=wrap;rounded=0;sketch=0;fontColor=#1D3557;" parent="1" vertex="1">
                    <mxGeometry x="139" y="539" width="40" height="20" as="geometry"/>
                </mxCell>
                <mxCell id="cIttYglj0ijw0yKCPZpT-80" value="" style="endArrow=none;html=1;strokeColor=#457B9D;fillColor=#A8DADC;fontColor=#1D3557;exitX=0.5;exitY=1;exitDx=0;exitDy=0;entryX=0.5;entryY=0;entryDx=0;entryDy=0;labelBackgroundColor=#F1FAEE;" parent="1" source="cIttYglj0ijw0yKCPZpT-63" target="cIttYglj0ijw0yKCPZpT-60" edge="1">
                    <mxGeometry width="50" height="50" relative="1" as="geometry">
                        <mxPoint x="189" y="447" as="sourcePoint"/>
                        <mxPoint x="254" y="447" as="targetPoint"/>
                    </mxGeometry>
                </mxCell>
                <mxCell id="cIttYglj0ijw0yKCPZpT-81" value="" style="endArrow=none;html=1;strokeColor=#457B9D;fillColor=#A8DADC;fontColor=#1D3557;exitX=1;exitY=0.5;exitDx=0;exitDy=0;entryX=0;entryY=0.5;entryDx=0;entryDy=0;labelBackgroundColor=#F1FAEE;" parent="1" source="cIttYglj0ijw0yKCPZpT-60" target="cIttYglj0ijw0yKCPZpT-90" edge="1">
                    <mxGeometry width="50" height="50" relative="1" as="geometry">
                        <mxPoint x="298" y="584" as="sourcePoint"/>
                        <mxPoint x="315" y="575" as="targetPoint"/>
                    </mxGeometry>
                </mxCell>
                <mxCell id="cIttYglj0ijw0yKCPZpT-88" value="" style="endArrow=none;html=1;strokeColor=#457B9D;fillColor=#A8DADC;fontColor=#1D3557;exitX=1;exitY=0.5;exitDx=0;exitDy=0;entryX=0;entryY=0.5;entryDx=0;entryDy=0;labelBackgroundColor=#F1FAEE;" parent="1" source="cIttYglj0ijw0yKCPZpT-90" target="cIttYglj0ijw0yKCPZpT-61" edge="1">
                    <mxGeometry width="50" height="50" relative="1" as="geometry">
                        <mxPoint x="242" y="546" as="sourcePoint"/>
                        <mxPoint x="289" y="546" as="targetPoint"/>
                    </mxGeometry>
                </mxCell>
                <mxCell id="cIttYglj0ijw0yKCPZpT-89" value="n" style="text;html=1;strokeColor=none;fillColor=none;align=center;verticalAlign=middle;whiteSpace=wrap;rounded=0;sketch=0;fontColor=#1D3557;" parent="1" vertex="1">
                    <mxGeometry x="255" y="559" width="40" height="20" as="geometry"/>
                </mxCell>
                <mxCell id="cIttYglj0ijw0yKCPZpT-90" value="拥有" style="rhombus;whiteSpace=wrap;html=1;fillColor=#A8DADC;strokeColor=#457B9D;fontColor=#1D3557;" parent="1" vertex="1">
                    <mxGeometry x="361" y="559" width="80" height="48" as="geometry"/>
                </mxCell>
                <mxCell id="cIttYglj0ijw0yKCPZpT-91" value="" style="endArrow=none;html=1;strokeColor=#457B9D;fillColor=#A8DADC;fontColor=#1D3557;exitX=0.5;exitY=1;exitDx=0;exitDy=0;entryX=0.5;entryY=0;entryDx=0;entryDy=0;labelBackgroundColor=#F1FAEE;" parent="1" source="cIttYglj0ijw0yKCPZpT-59" target="cIttYglj0ijw0yKCPZpT-90" edge="1">
                    <mxGeometry width="50" height="50" relative="1" as="geometry">
                        <mxPoint x="401" y="452" as="sourcePoint"/>
                        <mxPoint x="401" y="570" as="targetPoint"/>
                    </mxGeometry>
                </mxCell>
                <mxCell id="cIttYglj0ijw0yKCPZpT-92" value="m" style="text;html=1;strokeColor=none;fillColor=none;align=center;verticalAlign=middle;whiteSpace=wrap;rounded=0;sketch=0;fontColor=#1D3557;" parent="1" vertex="1">
                    <mxGeometry x="446" y="553" width="40" height="20" as="geometry"/>
                </mxCell>
                <mxCell id="cIttYglj0ijw0yKCPZpT-97" value="n" style="text;html=1;strokeColor=none;fillColor=none;align=center;verticalAlign=middle;whiteSpace=wrap;rounded=0;sketch=0;fontColor=#1D3557;" parent="1" vertex="1">
                    <mxGeometry x="391" y="461" width="40" height="20" as="geometry"/>
                </mxCell>
                <mxCell id="cIttYglj0ijw0yKCPZpT-100" value="" style="endArrow=none;html=1;strokeColor=#457B9D;fillColor=#A8DADC;fontColor=#1D3557;entryX=0;entryY=0.5;entryDx=0;entryDy=0;exitX=1;exitY=0.5;exitDx=0;exitDy=0;labelBackgroundColor=#F1FAEE;" parent="1" source="cIttYglj0ijw0yKCPZpT-59" target="cIttYglj0ijw0yKCPZpT-102" edge="1">
                    <mxGeometry width="50" height="50" relative="1" as="geometry">
                        <mxPoint x="429" y="441" as="sourcePoint"/>
                        <mxPoint x="476" y="441" as="targetPoint"/>
                    </mxGeometry>
                </mxCell>
                <mxCell id="cIttYglj0ijw0yKCPZpT-101" value="1" style="text;html=1;strokeColor=none;fillColor=none;align=center;verticalAlign=middle;whiteSpace=wrap;rounded=0;sketch=0;fontColor=#1D3557;" parent="1" vertex="1">
                    <mxGeometry x="441" y="417" width="40" height="20" as="geometry"/>
                </mxCell>
                <mxCell id="cIttYglj0ijw0yKCPZpT-102" value="评论" style="whiteSpace=wrap;html=1;fillColor=#A8DADC;strokeColor=#457B9D;fontColor=#1D3557;" parent="1" vertex="1">
                    <mxGeometry x="508" y="422" width="60" height="30" as="geometry"/>
                </mxCell>
                <mxCell id="55" value="文章数据" style="rounded=0;whiteSpace=wrap;html=1;fillColor=#A8DADC;strokeColor=#457B9D;fontColor=#1D3557;" parent="1" vertex="1">
                    <mxGeometry x="268" y="810" width="120" height="60" as="geometry"/>
                </mxCell>
                <mxCell id="57" style="edgeStyle=orthogonalEdgeStyle;rounded=0;orthogonalLoop=1;jettySize=auto;html=1;labelBackgroundColor=#F1FAEE;strokeColor=#457B9D;fontColor=#1D3557;" parent="1" source="56" target="55" edge="1">
                    <mxGeometry relative="1" as="geometry">
                        <mxPoint x="263.1744384765625" y="734.5026092529297" as="targetPoint"/>
                    </mxGeometry>
                </mxCell>
                <mxCell id="56" value="游客" style="rounded=1;whiteSpace=wrap;html=1;fillColor=#A8DADC;strokeColor=#457B9D;fontColor=#1D3557;" parent="1" vertex="1">
                    <mxGeometry x="119" y="703" width="65" height="51" as="geometry"/>
                </mxCell>
            </root>
        </mxGraphModel>
    </diagram>
    <diagram id="2iKe1UUOZUnPzwV5OlyD" name="第 2 页">
        <mxGraphModel dx="548" dy="570" grid="0" gridSize="10" guides="1" tooltips="1" connect="1" arrows="1" fold="1" page="1" pageScale="1" pageWidth="827" pageHeight="1169" background="#F1FAEE" math="0" shadow="0">
            <root>
                <mxCell id="-CnwaaTD-AjhysxlFjo5-0"/>
                <mxCell id="-CnwaaTD-AjhysxlFjo5-1" parent="-CnwaaTD-AjhysxlFjo5-0"/>
                <mxCell id="T54eDSrZWdsgnoKaAE58-0" value="文章权限" style="whiteSpace=wrap;html=1;fillColor=#A8DADC;strokeColor=#457B9D;fontColor=#1D3557;" parent="-CnwaaTD-AjhysxlFjo5-1" vertex="1">
                    <mxGeometry x="227" y="233" width="60" height="30" as="geometry"/>
                </mxCell>
                <mxCell id="T54eDSrZWdsgnoKaAE58-1" value="管理员" style="ellipse;whiteSpace=wrap;html=1;fillColor=#A8DADC;strokeColor=#457B9D;fontColor=#1D3557;" parent="-CnwaaTD-AjhysxlFjo5-1" vertex="1">
                    <mxGeometry x="232" y="174" width="70" height="40" as="geometry"/>
                </mxCell>
                <mxCell id="T54eDSrZWdsgnoKaAE58-2" value="文章ID" style="ellipse;whiteSpace=wrap;html=1;fillColor=#A8DADC;strokeColor=#457B9D;fontColor=#1D3557;" parent="-CnwaaTD-AjhysxlFjo5-1" vertex="1">
                    <mxGeometry x="315" y="174" width="70" height="40" as="geometry"/>
                </mxCell>
                <mxCell id="T54eDSrZWdsgnoKaAE58-3" value="编辑权限" style="ellipse;whiteSpace=wrap;html=1;fillColor=#A8DADC;strokeColor=#457B9D;fontColor=#1D3557;" parent="-CnwaaTD-AjhysxlFjo5-1" vertex="1">
                    <mxGeometry x="154" y="174" width="70" height="40" as="geometry"/>
                </mxCell>
                <mxCell id="T54eDSrZWdsgnoKaAE58-4" value="查看权限" style="ellipse;whiteSpace=wrap;html=1;fillColor=#A8DADC;strokeColor=#457B9D;fontColor=#1D3557;" parent="-CnwaaTD-AjhysxlFjo5-1" vertex="1">
                    <mxGeometry x="170" y="289" width="70" height="40" as="geometry"/>
                </mxCell>
                <mxCell id="T54eDSrZWdsgnoKaAE58-5" value="作者" style="ellipse;whiteSpace=wrap;html=1;fillColor=#A8DADC;strokeColor=#457B9D;fontColor=#1D3557;" parent="-CnwaaTD-AjhysxlFjo5-1" vertex="1">
                    <mxGeometry x="278" y="291" width="70" height="40" as="geometry"/>
                </mxCell>
                <mxCell id="T54eDSrZWdsgnoKaAE58-8" value="" style="endArrow=none;html=1;entryX=0.5;entryY=1;entryDx=0;entryDy=0;strokeColor=#457B9D;fontColor=#1D3557;labelBackgroundColor=#F1FAEE;" parent="-CnwaaTD-AjhysxlFjo5-1" source="T54eDSrZWdsgnoKaAE58-5" target="T54eDSrZWdsgnoKaAE58-0" edge="1">
                    <mxGeometry width="50" height="50" relative="1" as="geometry">
                        <mxPoint x="277.25126265847075" y="318.85786437626894" as="sourcePoint"/>
                        <mxPoint x="252" y="273" as="targetPoint"/>
                    </mxGeometry>
                </mxCell>
                <mxCell id="T54eDSrZWdsgnoKaAE58-9" value="" style="endArrow=none;html=1;entryX=0.5;entryY=1;entryDx=0;entryDy=0;strokeColor=#457B9D;fontColor=#1D3557;labelBackgroundColor=#F1FAEE;" parent="-CnwaaTD-AjhysxlFjo5-1" source="T54eDSrZWdsgnoKaAE58-4" target="T54eDSrZWdsgnoKaAE58-0" edge="1">
                    <mxGeometry width="50" height="50" relative="1" as="geometry">
                        <mxPoint x="167" y="283" as="sourcePoint"/>
                        <mxPoint x="217" y="233" as="targetPoint"/>
                    </mxGeometry>
                </mxCell>
                <mxCell id="T54eDSrZWdsgnoKaAE58-10" value="" style="endArrow=none;html=1;strokeColor=#457B9D;fontColor=#1D3557;labelBackgroundColor=#F1FAEE;exitX=0.5;exitY=0;exitDx=0;exitDy=0;" parent="-CnwaaTD-AjhysxlFjo5-1" source="T54eDSrZWdsgnoKaAE58-0" target="T54eDSrZWdsgnoKaAE58-3" edge="1">
                    <mxGeometry width="50" height="50" relative="1" as="geometry">
                        <mxPoint x="227" y="248" as="sourcePoint"/>
                        <mxPoint x="227" y="183" as="targetPoint"/>
                    </mxGeometry>
                </mxCell>
                <mxCell id="T54eDSrZWdsgnoKaAE58-11" value="" style="endArrow=none;html=1;exitX=0.5;exitY=0;exitDx=0;exitDy=0;strokeColor=#457B9D;fontColor=#1D3557;labelBackgroundColor=#F1FAEE;" parent="-CnwaaTD-AjhysxlFjo5-1" source="T54eDSrZWdsgnoKaAE58-0" target="T54eDSrZWdsgnoKaAE58-1" edge="1">
                    <mxGeometry width="50" height="50" relative="1" as="geometry">
                        <mxPoint x="237" y="233" as="sourcePoint"/>
                        <mxPoint x="287" y="183" as="targetPoint"/>
                    </mxGeometry>
                </mxCell>
                <mxCell id="T54eDSrZWdsgnoKaAE58-12" value="" style="endArrow=none;html=1;entryX=0.5;entryY=1;entryDx=0;entryDy=0;exitX=0.5;exitY=0;exitDx=0;exitDy=0;strokeColor=#457B9D;fontColor=#1D3557;labelBackgroundColor=#F1FAEE;" parent="-CnwaaTD-AjhysxlFjo5-1" source="T54eDSrZWdsgnoKaAE58-0" target="T54eDSrZWdsgnoKaAE58-2" edge="1">
                    <mxGeometry width="50" height="50" relative="1" as="geometry">
                        <mxPoint x="97" y="543" as="sourcePoint"/>
                        <mxPoint x="147" y="493" as="targetPoint"/>
                    </mxGeometry>
                </mxCell>
                <mxCell id="T54eDSrZWdsgnoKaAE58-15" value="归属" style="rhombus;whiteSpace=wrap;html=1;fillColor=#A8DADC;strokeColor=#457B9D;fontColor=#1D3557;" parent="-CnwaaTD-AjhysxlFjo5-1" vertex="1">
                    <mxGeometry x="170" y="635" width="80" height="80" as="geometry"/>
                </mxCell>
                <mxCell id="T54eDSrZWdsgnoKaAE58-16" value="" style="endArrow=classic;html=1;strokeColor=#457B9D;fontColor=#1D3557;labelBackgroundColor=#F1FAEE;" parent="-CnwaaTD-AjhysxlFjo5-1" edge="1">
                    <mxGeometry relative="1" as="geometry">
                        <mxPoint x="252" y="675" as="sourcePoint"/>
                        <mxPoint x="302" y="675" as="targetPoint"/>
                    </mxGeometry>
                </mxCell>
                <mxCell id="T54eDSrZWdsgnoKaAE58-17" value="1" style="edgeLabel;resizable=0;html=1;align=center;verticalAlign=middle;fontColor=#1D3557;labelBackgroundColor=#F1FAEE;" parent="T54eDSrZWdsgnoKaAE58-16" connectable="0" vertex="1">
                    <mxGeometry relative="1" as="geometry"/>
                </mxCell>
                <mxCell id="T54eDSrZWdsgnoKaAE58-18" value="文章" style="whiteSpace=wrap;html=1;fillColor=#A8DADC;strokeColor=#457B9D;fontColor=#1D3557;" parent="-CnwaaTD-AjhysxlFjo5-1" vertex="1">
                    <mxGeometry x="302" y="660" width="60" height="30" as="geometry"/>
                </mxCell>
                <mxCell id="T54eDSrZWdsgnoKaAE58-19" value="文章ID" style="ellipse;whiteSpace=wrap;html=1;fillColor=#A8DADC;strokeColor=#457B9D;fontColor=#1D3557;" parent="-CnwaaTD-AjhysxlFjo5-1" vertex="1">
                    <mxGeometry x="224" y="524" width="70" height="40" as="geometry"/>
                </mxCell>
                <mxCell id="T54eDSrZWdsgnoKaAE58-20" value="标题" style="ellipse;whiteSpace=wrap;html=1;fillColor=#A8DADC;strokeColor=#457B9D;fontColor=#1D3557;" parent="-CnwaaTD-AjhysxlFjo5-1" vertex="1">
                    <mxGeometry x="312" y="520" width="70" height="37" as="geometry"/>
                </mxCell>
                <mxCell id="T54eDSrZWdsgnoKaAE58-21" value="发布时间" style="ellipse;whiteSpace=wrap;html=1;fillColor=#A8DADC;strokeColor=#457B9D;fontColor=#1D3557;" parent="-CnwaaTD-AjhysxlFjo5-1" vertex="1">
                    <mxGeometry x="385" y="536" width="70" height="40" as="geometry"/>
                </mxCell>
                <mxCell id="T54eDSrZWdsgnoKaAE58-22" value="作者" style="ellipse;whiteSpace=wrap;html=1;fillColor=#A8DADC;strokeColor=#457B9D;fontColor=#1D3557;" parent="-CnwaaTD-AjhysxlFjo5-1" vertex="1">
                    <mxGeometry x="405" y="750" width="70" height="40" as="geometry"/>
                </mxCell>
                <mxCell id="T54eDSrZWdsgnoKaAE58-23" value="介绍" style="ellipse;whiteSpace=wrap;html=1;fillColor=#A8DADC;strokeColor=#457B9D;fontColor=#1D3557;" parent="-CnwaaTD-AjhysxlFjo5-1" vertex="1">
                    <mxGeometry x="219" y="743" width="70" height="40" as="geometry"/>
                </mxCell>
                <mxCell id="T54eDSrZWdsgnoKaAE58-24" value="观看数" style="ellipse;whiteSpace=wrap;html=1;fillColor=#A8DADC;strokeColor=#457B9D;fontColor=#1D3557;" parent="-CnwaaTD-AjhysxlFjo5-1" vertex="1">
                    <mxGeometry x="328" y="760" width="70" height="40" as="geometry"/>
                </mxCell>
                <mxCell id="T54eDSrZWdsgnoKaAE58-25" value="" style="endArrow=none;html=1;entryX=0.5;entryY=1;entryDx=0;entryDy=0;exitX=0;exitY=0;exitDx=0;exitDy=0;strokeColor=#457B9D;fontColor=#1D3557;labelBackgroundColor=#F1FAEE;" parent="-CnwaaTD-AjhysxlFjo5-1" source="T54eDSrZWdsgnoKaAE58-24" target="T54eDSrZWdsgnoKaAE58-18" edge="1">
                    <mxGeometry width="50" height="50" relative="1" as="geometry">
                        <mxPoint x="322" y="850" as="sourcePoint"/>
                        <mxPoint x="372" y="800" as="targetPoint"/>
                    </mxGeometry>
                </mxCell>
                <mxCell id="T54eDSrZWdsgnoKaAE58-26" value="" style="endArrow=none;html=1;entryX=0.5;entryY=1;entryDx=0;entryDy=0;strokeColor=#457B9D;fontColor=#1D3557;labelBackgroundColor=#F1FAEE;" parent="-CnwaaTD-AjhysxlFjo5-1" source="T54eDSrZWdsgnoKaAE58-23" target="T54eDSrZWdsgnoKaAE58-18" edge="1">
                    <mxGeometry width="50" height="50" relative="1" as="geometry">
                        <mxPoint x="352.25126265847075" y="745.8578643762689" as="sourcePoint"/>
                        <mxPoint x="327" y="700" as="targetPoint"/>
                    </mxGeometry>
                </mxCell>
                <mxCell id="T54eDSrZWdsgnoKaAE58-27" value="" style="endArrow=none;html=1;strokeColor=#457B9D;fontColor=#1D3557;labelBackgroundColor=#F1FAEE;entryX=0.5;entryY=1;entryDx=0;entryDy=0;" parent="-CnwaaTD-AjhysxlFjo5-1" source="T54eDSrZWdsgnoKaAE58-22" target="T54eDSrZWdsgnoKaAE58-18" edge="1">
                    <mxGeometry width="50" height="50" relative="1" as="geometry">
                        <mxPoint x="242" y="710" as="sourcePoint"/>
                        <mxPoint x="363" y="675" as="targetPoint"/>
                    </mxGeometry>
                </mxCell>
                <mxCell id="T54eDSrZWdsgnoKaAE58-28" value="" style="endArrow=none;html=1;entryX=0;entryY=1;entryDx=0;entryDy=0;strokeColor=#457B9D;fontColor=#1D3557;labelBackgroundColor=#F1FAEE;" parent="-CnwaaTD-AjhysxlFjo5-1" source="T54eDSrZWdsgnoKaAE58-18" target="T54eDSrZWdsgnoKaAE58-21" edge="1">
                    <mxGeometry width="50" height="50" relative="1" as="geometry">
                        <mxPoint x="252" y="660" as="sourcePoint"/>
                        <mxPoint x="302" y="610" as="targetPoint"/>
                    </mxGeometry>
                </mxCell>
                <mxCell id="T54eDSrZWdsgnoKaAE58-29" value="" style="endArrow=none;html=1;entryX=0.5;entryY=1;entryDx=0;entryDy=0;exitX=0.5;exitY=0;exitDx=0;exitDy=0;strokeColor=#457B9D;fontColor=#1D3557;labelBackgroundColor=#F1FAEE;" parent="-CnwaaTD-AjhysxlFjo5-1" source="T54eDSrZWdsgnoKaAE58-18" target="T54eDSrZWdsgnoKaAE58-19" edge="1">
                    <mxGeometry width="50" height="50" relative="1" as="geometry">
                        <mxPoint x="312" y="660" as="sourcePoint"/>
                        <mxPoint x="362" y="610" as="targetPoint"/>
                    </mxGeometry>
                </mxCell>
                <mxCell id="T54eDSrZWdsgnoKaAE58-30" value="" style="endArrow=none;html=1;entryX=0.5;entryY=1;entryDx=0;entryDy=0;exitX=0.5;exitY=0;exitDx=0;exitDy=0;strokeColor=#457B9D;fontColor=#1D3557;labelBackgroundColor=#F1FAEE;" parent="-CnwaaTD-AjhysxlFjo5-1" source="T54eDSrZWdsgnoKaAE58-18" target="T54eDSrZWdsgnoKaAE58-20" edge="1">
                    <mxGeometry width="50" height="50" relative="1" as="geometry">
                        <mxPoint x="172" y="970" as="sourcePoint"/>
                        <mxPoint x="222" y="920" as="targetPoint"/>
                    </mxGeometry>
                </mxCell>
                <mxCell id="T54eDSrZWdsgnoKaAE58-32" value="评论" style="whiteSpace=wrap;html=1;fillColor=#A8DADC;strokeColor=#457B9D;fontColor=#1D3557;" parent="-CnwaaTD-AjhysxlFjo5-1" vertex="1">
                    <mxGeometry x="577" y="414" width="60" height="30" as="geometry"/>
                </mxCell>
                <mxCell id="T54eDSrZWdsgnoKaAE58-33" value="文章Id" style="ellipse;whiteSpace=wrap;html=1;fillColor=#A8DADC;strokeColor=#457B9D;fontColor=#1D3557;" parent="-CnwaaTD-AjhysxlFjo5-1" vertex="1">
                    <mxGeometry x="522" y="354" width="70" height="40" as="geometry"/>
                </mxCell>
                <mxCell id="T54eDSrZWdsgnoKaAE58-34" value="评论用户名" style="ellipse;whiteSpace=wrap;html=1;fillColor=#A8DADC;strokeColor=#457B9D;fontColor=#1D3557;" parent="-CnwaaTD-AjhysxlFjo5-1" vertex="1">
                    <mxGeometry x="612" y="354" width="70" height="40" as="geometry"/>
                </mxCell>
                <mxCell id="T54eDSrZWdsgnoKaAE58-35" value="评论内容" style="ellipse;whiteSpace=wrap;html=1;fillColor=#A8DADC;strokeColor=#457B9D;fontColor=#1D3557;" parent="-CnwaaTD-AjhysxlFjo5-1" vertex="1">
                    <mxGeometry x="631" y="470" width="70" height="40" as="geometry"/>
                </mxCell>
                <mxCell id="T54eDSrZWdsgnoKaAE58-36" value="评论时间" style="ellipse;whiteSpace=wrap;html=1;fillColor=#A8DADC;strokeColor=#457B9D;fontColor=#1D3557;" parent="-CnwaaTD-AjhysxlFjo5-1" vertex="1">
                    <mxGeometry x="542" y="470" width="70" height="40" as="geometry"/>
                </mxCell>
                <mxCell id="T54eDSrZWdsgnoKaAE58-39" value="" style="endArrow=none;html=1;entryX=0.5;entryY=1;entryDx=0;entryDy=0;strokeColor=#457B9D;fontColor=#1D3557;labelBackgroundColor=#F1FAEE;" parent="-CnwaaTD-AjhysxlFjo5-1" source="T54eDSrZWdsgnoKaAE58-36" target="T54eDSrZWdsgnoKaAE58-32" edge="1">
                    <mxGeometry width="50" height="50" relative="1" as="geometry">
                        <mxPoint x="517" y="464" as="sourcePoint"/>
                        <mxPoint x="567" y="414" as="targetPoint"/>
                    </mxGeometry>
                </mxCell>
                <mxCell id="T54eDSrZWdsgnoKaAE58-40" value="" style="endArrow=none;html=1;strokeColor=#457B9D;fontColor=#1D3557;labelBackgroundColor=#F1FAEE;exitX=0.5;exitY=1;exitDx=0;exitDy=0;" parent="-CnwaaTD-AjhysxlFjo5-1" source="T54eDSrZWdsgnoKaAE58-32" target="T54eDSrZWdsgnoKaAE58-35" edge="1">
                    <mxGeometry width="50" height="50" relative="1" as="geometry">
                        <mxPoint x="577" y="429" as="sourcePoint"/>
                        <mxPoint x="577" y="364" as="targetPoint"/>
                    </mxGeometry>
                </mxCell>
                <mxCell id="T54eDSrZWdsgnoKaAE58-41" value="" style="endArrow=none;html=1;exitX=0.5;exitY=0;exitDx=0;exitDy=0;strokeColor=#457B9D;fontColor=#1D3557;labelBackgroundColor=#F1FAEE;" parent="-CnwaaTD-AjhysxlFjo5-1" source="T54eDSrZWdsgnoKaAE58-32" target="T54eDSrZWdsgnoKaAE58-33" edge="1">
                    <mxGeometry width="50" height="50" relative="1" as="geometry">
                        <mxPoint x="587" y="414" as="sourcePoint"/>
                        <mxPoint x="637" y="364" as="targetPoint"/>
                    </mxGeometry>
                </mxCell>
                <mxCell id="T54eDSrZWdsgnoKaAE58-42" value="" style="endArrow=none;html=1;entryX=0.5;entryY=1;entryDx=0;entryDy=0;exitX=0.5;exitY=0;exitDx=0;exitDy=0;strokeColor=#457B9D;fontColor=#1D3557;labelBackgroundColor=#F1FAEE;" parent="-CnwaaTD-AjhysxlFjo5-1" source="T54eDSrZWdsgnoKaAE58-32" target="T54eDSrZWdsgnoKaAE58-34" edge="1">
                    <mxGeometry width="50" height="50" relative="1" as="geometry">
                        <mxPoint x="447" y="724" as="sourcePoint"/>
                        <mxPoint x="497" y="674" as="targetPoint"/>
                    </mxGeometry>
                </mxCell>
                <mxCell id="T54eDSrZWdsgnoKaAE58-47" value="" style="endArrow=classic;html=1;strokeColor=#457B9D;fillColor=#A8DADC;fontColor=#1D3557;" parent="-CnwaaTD-AjhysxlFjo5-1" source="T54eDSrZWdsgnoKaAE58-18" edge="1">
                    <mxGeometry relative="1" as="geometry">
                        <mxPoint x="436" y="674.5" as="sourcePoint"/>
                        <mxPoint x="530" y="675" as="targetPoint"/>
                    </mxGeometry>
                </mxCell>
                <mxCell id="T54eDSrZWdsgnoKaAE58-48" value="1" style="edgeLabel;resizable=0;html=1;align=center;verticalAlign=middle;" parent="T54eDSrZWdsgnoKaAE58-47" connectable="0" vertex="1">
                    <mxGeometry relative="1" as="geometry"/>
                </mxCell>
                <mxCell id="cEJfET99mheDW-kRA9L--9" value="" style="edgeStyle=orthogonalEdgeStyle;rounded=0;orthogonalLoop=1;jettySize=auto;html=1;" parent="-CnwaaTD-AjhysxlFjo5-1" source="cEJfET99mheDW-kRA9L--0" target="cEJfET99mheDW-kRA9L--2" edge="1">
                    <mxGeometry relative="1" as="geometry"/>
                </mxCell>
                <mxCell id="cEJfET99mheDW-kRA9L--0" value="团队空间" style="whiteSpace=wrap;html=1;fillColor=#A8DADC;strokeColor=#457B9D;fontColor=#1D3557;" parent="-CnwaaTD-AjhysxlFjo5-1" vertex="1">
                    <mxGeometry x="565" y="222" width="60" height="30" as="geometry"/>
                </mxCell>
                <mxCell id="cEJfET99mheDW-kRA9L--1" value="空间Id" style="ellipse;whiteSpace=wrap;html=1;fillColor=#A8DADC;strokeColor=#457B9D;fontColor=#1D3557;" parent="-CnwaaTD-AjhysxlFjo5-1" vertex="1">
                    <mxGeometry x="510" y="162" width="70" height="40" as="geometry"/>
                </mxCell>
                <mxCell id="cEJfET99mheDW-kRA9L--2" value="空间作者" style="ellipse;whiteSpace=wrap;html=1;fillColor=#A8DADC;strokeColor=#457B9D;fontColor=#1D3557;" parent="-CnwaaTD-AjhysxlFjo5-1" vertex="1">
                    <mxGeometry x="600" y="162" width="70" height="40" as="geometry"/>
                </mxCell>
                <mxCell id="cEJfET99mheDW-kRA9L--3" value="空间描述" style="ellipse;whiteSpace=wrap;html=1;fillColor=#A8DADC;strokeColor=#457B9D;fontColor=#1D3557;" parent="-CnwaaTD-AjhysxlFjo5-1" vertex="1">
                    <mxGeometry x="619" y="278" width="70" height="40" as="geometry"/>
                </mxCell>
                <mxCell id="cEJfET99mheDW-kRA9L--4" value="空间标题" style="ellipse;whiteSpace=wrap;html=1;fillColor=#A8DADC;strokeColor=#457B9D;fontColor=#1D3557;" parent="-CnwaaTD-AjhysxlFjo5-1" vertex="1">
                    <mxGeometry x="530" y="278" width="70" height="40" as="geometry"/>
                </mxCell>
                <mxCell id="cEJfET99mheDW-kRA9L--5" value="" style="endArrow=none;html=1;entryX=0.5;entryY=1;entryDx=0;entryDy=0;strokeColor=#457B9D;fontColor=#1D3557;labelBackgroundColor=#F1FAEE;" parent="-CnwaaTD-AjhysxlFjo5-1" source="cEJfET99mheDW-kRA9L--4" target="cEJfET99mheDW-kRA9L--0" edge="1">
                    <mxGeometry width="50" height="50" relative="1" as="geometry">
                        <mxPoint x="505" y="272" as="sourcePoint"/>
                        <mxPoint x="555" y="222" as="targetPoint"/>
                    </mxGeometry>
                </mxCell>
                <mxCell id="cEJfET99mheDW-kRA9L--6" value="" style="endArrow=none;html=1;strokeColor=#457B9D;fontColor=#1D3557;labelBackgroundColor=#F1FAEE;exitX=0.5;exitY=1;exitDx=0;exitDy=0;" parent="-CnwaaTD-AjhysxlFjo5-1" source="cEJfET99mheDW-kRA9L--0" target="cEJfET99mheDW-kRA9L--3" edge="1">
                    <mxGeometry width="50" height="50" relative="1" as="geometry">
                        <mxPoint x="565" y="237" as="sourcePoint"/>
                        <mxPoint x="565" y="172" as="targetPoint"/>
                    </mxGeometry>
                </mxCell>
                <mxCell id="cEJfET99mheDW-kRA9L--7" value="" style="endArrow=none;html=1;exitX=0.5;exitY=0;exitDx=0;exitDy=0;strokeColor=#457B9D;fontColor=#1D3557;labelBackgroundColor=#F1FAEE;" parent="-CnwaaTD-AjhysxlFjo5-1" source="cEJfET99mheDW-kRA9L--0" target="cEJfET99mheDW-kRA9L--1" edge="1">
                    <mxGeometry width="50" height="50" relative="1" as="geometry">
                        <mxPoint x="575" y="222" as="sourcePoint"/>
                        <mxPoint x="625" y="172" as="targetPoint"/>
                    </mxGeometry>
                </mxCell>
                <mxCell id="cEJfET99mheDW-kRA9L--8" value="" style="endArrow=none;html=1;entryX=0.5;entryY=1;entryDx=0;entryDy=0;exitX=0.5;exitY=0;exitDx=0;exitDy=0;strokeColor=#457B9D;fontColor=#1D3557;labelBackgroundColor=#F1FAEE;" parent="-CnwaaTD-AjhysxlFjo5-1" source="cEJfET99mheDW-kRA9L--0" target="cEJfET99mheDW-kRA9L--2" edge="1">
                    <mxGeometry width="50" height="50" relative="1" as="geometry">
                        <mxPoint x="435" y="532" as="sourcePoint"/>
                        <mxPoint x="485" y="482" as="targetPoint"/>
                    </mxGeometry>
                </mxCell>
                <mxCell id="cEJfET99mheDW-kRA9L--10" value="收藏" style="whiteSpace=wrap;html=1;fillColor=#A8DADC;strokeColor=#457B9D;fontColor=#1D3557;" parent="-CnwaaTD-AjhysxlFjo5-1" vertex="1">
                    <mxGeometry x="628" y="654" width="60" height="30" as="geometry"/>
                </mxCell>
                <mxCell id="cEJfET99mheDW-kRA9L--11" value="收藏Id" style="ellipse;whiteSpace=wrap;html=1;fillColor=#A8DADC;strokeColor=#457B9D;fontColor=#1D3557;" parent="-CnwaaTD-AjhysxlFjo5-1" vertex="1">
                    <mxGeometry x="573" y="594" width="70" height="40" as="geometry"/>
                </mxCell>
                <mxCell id="cEJfET99mheDW-kRA9L--12" value="用户账号" style="ellipse;whiteSpace=wrap;html=1;fillColor=#A8DADC;strokeColor=#457B9D;fontColor=#1D3557;" parent="-CnwaaTD-AjhysxlFjo5-1" vertex="1">
                    <mxGeometry x="663" y="594" width="70" height="40" as="geometry"/>
                </mxCell>
                <mxCell id="cEJfET99mheDW-kRA9L--14" value="文章ID" style="ellipse;whiteSpace=wrap;html=1;fillColor=#A8DADC;strokeColor=#457B9D;fontColor=#1D3557;" parent="-CnwaaTD-AjhysxlFjo5-1" vertex="1">
                    <mxGeometry x="593" y="710" width="70" height="40" as="geometry"/>
                </mxCell>
                <mxCell id="cEJfET99mheDW-kRA9L--15" value="" style="endArrow=none;html=1;entryX=0.5;entryY=1;entryDx=0;entryDy=0;strokeColor=#457B9D;fontColor=#1D3557;labelBackgroundColor=#F1FAEE;" parent="-CnwaaTD-AjhysxlFjo5-1" source="cEJfET99mheDW-kRA9L--14" target="cEJfET99mheDW-kRA9L--10" edge="1">
                    <mxGeometry width="50" height="50" relative="1" as="geometry">
                        <mxPoint x="568" y="704" as="sourcePoint"/>
                        <mxPoint x="618" y="654" as="targetPoint"/>
                    </mxGeometry>
                </mxCell>
                <mxCell id="cEJfET99mheDW-kRA9L--17" value="" style="endArrow=none;html=1;exitX=0.5;exitY=0;exitDx=0;exitDy=0;strokeColor=#457B9D;fontColor=#1D3557;labelBackgroundColor=#F1FAEE;" parent="-CnwaaTD-AjhysxlFjo5-1" source="cEJfET99mheDW-kRA9L--10" target="cEJfET99mheDW-kRA9L--11" edge="1">
                    <mxGeometry width="50" height="50" relative="1" as="geometry">
                        <mxPoint x="638" y="654" as="sourcePoint"/>
                        <mxPoint x="688" y="604" as="targetPoint"/>
                    </mxGeometry>
                </mxCell>
                <mxCell id="cEJfET99mheDW-kRA9L--18" value="" style="endArrow=none;html=1;entryX=0.5;entryY=1;entryDx=0;entryDy=0;exitX=0.5;exitY=0;exitDx=0;exitDy=0;strokeColor=#457B9D;fontColor=#1D3557;labelBackgroundColor=#F1FAEE;" parent="-CnwaaTD-AjhysxlFjo5-1" source="cEJfET99mheDW-kRA9L--10" target="cEJfET99mheDW-kRA9L--12" edge="1">
                    <mxGeometry width="50" height="50" relative="1" as="geometry">
                        <mxPoint x="498" y="964" as="sourcePoint"/>
                        <mxPoint x="548" y="914" as="targetPoint"/>
                    </mxGeometry>
                </mxCell>
            </root>
        </mxGraphModel>
    </diagram>
    <diagram id="_H4M4U6zM9isykLtDe_x" name="第 3 页">
        <mxGraphModel dx="457" dy="420" grid="0" gridSize="10" guides="1" tooltips="1" connect="1" arrows="1" fold="1" page="1" pageScale="1" pageWidth="827" pageHeight="1169" background="#F1FAEE" math="0" shadow="0">
            <root>
                <mxCell id="m7QaNfk4z3ijhBNpgV-_-0"/>
                <mxCell id="m7QaNfk4z3ijhBNpgV-_-1" parent="m7QaNfk4z3ijhBNpgV-_-0"/>
                <mxCell id="m7QaNfk4z3ijhBNpgV-_-2" value="博客管理系统" style="rounded=1;whiteSpace=wrap;html=1;sketch=0;strokeColor=#457B9D;fillColor=#A8DADC;fontColor=#1D3557;" parent="m7QaNfk4z3ijhBNpgV-_-1" vertex="1">
                    <mxGeometry x="241" y="97" width="104" height="32" as="geometry"/>
                </mxCell>
                <mxCell id="m7QaNfk4z3ijhBNpgV-_-3" value="" style="endArrow=classic;html=1;strokeColor=#457B9D;fillColor=#A8DADC;fontColor=#1D3557;exitX=0.5;exitY=1;exitDx=0;exitDy=0;labelBackgroundColor=#F1FAEE;" parent="m7QaNfk4z3ijhBNpgV-_-1" source="m7QaNfk4z3ijhBNpgV-_-2" target="m7QaNfk4z3ijhBNpgV-_-4" edge="1">
                    <mxGeometry width="50" height="50" relative="1" as="geometry">
                        <mxPoint x="286" y="319" as="sourcePoint"/>
                        <mxPoint x="288" y="210" as="targetPoint"/>
                    </mxGeometry>
                </mxCell>
                <mxCell id="m7QaNfk4z3ijhBNpgV-_-4" value="文章" style="rounded=1;whiteSpace=wrap;html=1;sketch=0;strokeColor=#457B9D;fillColor=#A8DADC;fontColor=#1D3557;" parent="m7QaNfk4z3ijhBNpgV-_-1" vertex="1">
                    <mxGeometry x="127" y="169" width="104" height="32" as="geometry"/>
                </mxCell>
                <mxCell id="bFU2xB7Pr_dC1taCSQEl-2" style="edgeStyle=orthogonalEdgeStyle;rounded=0;orthogonalLoop=1;jettySize=auto;html=1;labelBackgroundColor=#F1FAEE;strokeColor=#457B9D;fontColor=#1D3557;" edge="1" parent="m7QaNfk4z3ijhBNpgV-_-1" source="m7QaNfk4z3ijhBNpgV-_-10" target="m7QaNfk4z3ijhBNpgV-_-4">
                    <mxGeometry relative="1" as="geometry"/>
                </mxCell>
                <mxCell id="m7QaNfk4z3ijhBNpgV-_-10" value="用户" style="rounded=1;whiteSpace=wrap;html=1;sketch=0;strokeColor=#457B9D;fillColor=#A8DADC;fontColor=#1D3557;" parent="m7QaNfk4z3ijhBNpgV-_-1" vertex="1">
                    <mxGeometry x="352" y="169" width="104" height="32" as="geometry"/>
                </mxCell>
                <mxCell id="m7QaNfk4z3ijhBNpgV-_-12" value="" style="endArrow=classic;html=1;strokeColor=#457B9D;fillColor=#A8DADC;fontColor=#1D3557;entryX=0.5;entryY=0;entryDx=0;entryDy=0;exitX=0.5;exitY=1;exitDx=0;exitDy=0;labelBackgroundColor=#F1FAEE;" parent="m7QaNfk4z3ijhBNpgV-_-1" source="m7QaNfk4z3ijhBNpgV-_-2" target="m7QaNfk4z3ijhBNpgV-_-10" edge="1">
                    <mxGeometry width="50" height="50" relative="1" as="geometry">
                        <mxPoint x="277.66666666666663" y="139" as="sourcePoint"/>
                        <mxPoint x="214.33333333333337" y="179" as="targetPoint"/>
                    </mxGeometry>
                </mxCell>
                <mxCell id="m7QaNfk4z3ijhBNpgV-_-13" value="文章编辑" style="rounded=1;sketch=0;strokeColor=#457B9D;fillColor=#A8DADC;fontColor=#1D3557;verticalAlign=middle;align=center;labelPosition=center;verticalLabelPosition=middle;html=1;whiteSpace=wrap;horizontal=1;" parent="m7QaNfk4z3ijhBNpgV-_-1" vertex="1">
                    <mxGeometry x="127" y="237" width="19" height="130" as="geometry"/>
                </mxCell>
                <mxCell id="m7QaNfk4z3ijhBNpgV-_-14" value="文章数据管理" style="rounded=1;sketch=0;strokeColor=#457B9D;fillColor=#A8DADC;fontColor=#1D3557;verticalAlign=middle;align=center;labelPosition=center;verticalLabelPosition=middle;html=1;whiteSpace=wrap;horizontal=1;" parent="m7QaNfk4z3ijhBNpgV-_-1" vertex="1">
                    <mxGeometry x="158" y="237" width="19" height="130" as="geometry"/>
                </mxCell>
                <mxCell id="m7QaNfk4z3ijhBNpgV-_-15" value="权限管理" style="rounded=1;sketch=0;strokeColor=#457B9D;fillColor=#A8DADC;fontColor=#1D3557;verticalAlign=middle;align=center;labelPosition=center;verticalLabelPosition=middle;html=1;whiteSpace=wrap;horizontal=1;" parent="m7QaNfk4z3ijhBNpgV-_-1" vertex="1">
                    <mxGeometry x="189" y="237" width="19" height="130" as="geometry"/>
                </mxCell>
                <mxCell id="m7QaNfk4z3ijhBNpgV-_-17" value="文章评论收藏" style="rounded=1;sketch=0;strokeColor=#457B9D;fillColor=#A8DADC;fontColor=#1D3557;verticalAlign=middle;align=center;labelPosition=center;verticalLabelPosition=middle;html=1;whiteSpace=wrap;horizontal=1;" parent="m7QaNfk4z3ijhBNpgV-_-1" vertex="1">
                    <mxGeometry x="220" y="237" width="19" height="130" as="geometry"/>
                </mxCell>
                <mxCell id="m7QaNfk4z3ijhBNpgV-_-18" value="个人信息数据管理" style="rounded=1;sketch=0;strokeColor=#457B9D;fillColor=#A8DADC;fontColor=#1D3557;verticalAlign=middle;align=center;labelPosition=center;verticalLabelPosition=middle;html=1;whiteSpace=wrap;horizontal=1;" parent="m7QaNfk4z3ijhBNpgV-_-1" vertex="1">
                    <mxGeometry x="344" y="237" width="19" height="130" as="geometry"/>
                </mxCell>
                <mxCell id="m7QaNfk4z3ijhBNpgV-_-19" value="空间管理" style="rounded=1;sketch=0;strokeColor=#457B9D;fillColor=#A8DADC;fontColor=#1D3557;verticalAlign=middle;align=center;labelPosition=center;verticalLabelPosition=middle;html=1;whiteSpace=wrap;horizontal=1;" parent="m7QaNfk4z3ijhBNpgV-_-1" vertex="1">
                    <mxGeometry x="375" y="237" width="19" height="130" as="geometry"/>
                </mxCell>
                <mxCell id="m7QaNfk4z3ijhBNpgV-_-20" value="登陆注册" style="rounded=1;sketch=0;strokeColor=#457B9D;fillColor=#A8DADC;fontColor=#1D3557;verticalAlign=middle;align=center;labelPosition=center;verticalLabelPosition=middle;html=1;whiteSpace=wrap;horizontal=1;" parent="m7QaNfk4z3ijhBNpgV-_-1" vertex="1">
                    <mxGeometry x="406" y="237" width="19" height="130" as="geometry"/>
                </mxCell>
                <mxCell id="m7QaNfk4z3ijhBNpgV-_-21" value="团队文章浏览" style="rounded=1;sketch=0;strokeColor=#457B9D;fillColor=#A8DADC;fontColor=#1D3557;verticalAlign=middle;align=center;labelPosition=center;verticalLabelPosition=middle;html=1;whiteSpace=wrap;horizontal=1;" parent="m7QaNfk4z3ijhBNpgV-_-1" vertex="1">
                    <mxGeometry x="437" y="237" width="19" height="130" as="geometry"/>
                </mxCell>
                <mxCell id="m7QaNfk4z3ijhBNpgV-_-22" value="" style="endArrow=classic;html=1;strokeColor=#457B9D;fillColor=#A8DADC;fontColor=#1D3557;exitX=0.5;exitY=1;exitDx=0;exitDy=0;entryX=0.5;entryY=0;entryDx=0;entryDy=0;labelBackgroundColor=#F1FAEE;" parent="m7QaNfk4z3ijhBNpgV-_-1" source="m7QaNfk4z3ijhBNpgV-_-4" target="m7QaNfk4z3ijhBNpgV-_-13" edge="1">
                    <mxGeometry width="50" height="50" relative="1" as="geometry">
                        <mxPoint x="286" y="270" as="sourcePoint"/>
                        <mxPoint x="336" y="220" as="targetPoint"/>
                    </mxGeometry>
                </mxCell>
                <mxCell id="m7QaNfk4z3ijhBNpgV-_-23" value="" style="endArrow=classic;html=1;strokeColor=#457B9D;fillColor=#A8DADC;fontColor=#1D3557;exitX=0.5;exitY=1;exitDx=0;exitDy=0;entryX=0.5;entryY=0;entryDx=0;entryDy=0;labelBackgroundColor=#F1FAEE;" parent="m7QaNfk4z3ijhBNpgV-_-1" source="m7QaNfk4z3ijhBNpgV-_-4" target="m7QaNfk4z3ijhBNpgV-_-14" edge="1">
                    <mxGeometry width="50" height="50" relative="1" as="geometry">
                        <mxPoint x="189" y="211" as="sourcePoint"/>
                        <mxPoint x="146.5" y="247" as="targetPoint"/>
                    </mxGeometry>
                </mxCell>
                <mxCell id="m7QaNfk4z3ijhBNpgV-_-24" value="" style="endArrow=classic;html=1;strokeColor=#457B9D;fillColor=#A8DADC;fontColor=#1D3557;exitX=0.5;exitY=1;exitDx=0;exitDy=0;entryX=0.5;entryY=0;entryDx=0;entryDy=0;labelBackgroundColor=#F1FAEE;" parent="m7QaNfk4z3ijhBNpgV-_-1" source="m7QaNfk4z3ijhBNpgV-_-4" target="m7QaNfk4z3ijhBNpgV-_-15" edge="1">
                    <mxGeometry width="50" height="50" relative="1" as="geometry">
                        <mxPoint x="199" y="221" as="sourcePoint"/>
                        <mxPoint x="156.5" y="257" as="targetPoint"/>
                    </mxGeometry>
                </mxCell>
                <mxCell id="m7QaNfk4z3ijhBNpgV-_-25" value="" style="endArrow=classic;html=1;strokeColor=#457B9D;fillColor=#A8DADC;fontColor=#1D3557;exitX=0.5;exitY=1;exitDx=0;exitDy=0;labelBackgroundColor=#F1FAEE;" parent="m7QaNfk4z3ijhBNpgV-_-1" source="m7QaNfk4z3ijhBNpgV-_-4" edge="1">
                    <mxGeometry width="50" height="50" relative="1" as="geometry">
                        <mxPoint x="209" y="231" as="sourcePoint"/>
                        <mxPoint x="230" y="237" as="targetPoint"/>
                    </mxGeometry>
                </mxCell>
                <mxCell id="m7QaNfk4z3ijhBNpgV-_-26" value="" style="endArrow=classic;html=1;strokeColor=#457B9D;fillColor=#A8DADC;fontColor=#1D3557;exitX=0.5;exitY=1;exitDx=0;exitDy=0;entryX=0.5;entryY=0;entryDx=0;entryDy=0;labelBackgroundColor=#F1FAEE;" parent="m7QaNfk4z3ijhBNpgV-_-1" source="m7QaNfk4z3ijhBNpgV-_-10" target="m7QaNfk4z3ijhBNpgV-_-18" edge="1">
                    <mxGeometry width="50" height="50" relative="1" as="geometry">
                        <mxPoint x="294" y="274" as="sourcePoint"/>
                        <mxPoint x="344" y="224" as="targetPoint"/>
                    </mxGeometry>
                </mxCell>
                <mxCell id="m7QaNfk4z3ijhBNpgV-_-27" value="" style="endArrow=classic;html=1;strokeColor=#457B9D;fillColor=#A8DADC;fontColor=#1D3557;exitX=0.5;exitY=1;exitDx=0;exitDy=0;entryX=0.5;entryY=0;entryDx=0;entryDy=0;labelBackgroundColor=#F1FAEE;" parent="m7QaNfk4z3ijhBNpgV-_-1" source="m7QaNfk4z3ijhBNpgV-_-10" target="m7QaNfk4z3ijhBNpgV-_-19" edge="1">
                    <mxGeometry width="50" height="50" relative="1" as="geometry">
                        <mxPoint x="414" y="211" as="sourcePoint"/>
                        <mxPoint x="363.5" y="247" as="targetPoint"/>
                    </mxGeometry>
                </mxCell>
                <mxCell id="m7QaNfk4z3ijhBNpgV-_-28" value="" style="endArrow=classic;html=1;strokeColor=#457B9D;fillColor=#A8DADC;fontColor=#1D3557;exitX=0.5;exitY=1;exitDx=0;exitDy=0;entryX=0.5;entryY=0;entryDx=0;entryDy=0;labelBackgroundColor=#F1FAEE;" parent="m7QaNfk4z3ijhBNpgV-_-1" source="m7QaNfk4z3ijhBNpgV-_-10" target="m7QaNfk4z3ijhBNpgV-_-20" edge="1">
                    <mxGeometry width="50" height="50" relative="1" as="geometry">
                        <mxPoint x="424" y="221" as="sourcePoint"/>
                        <mxPoint x="373.5" y="257" as="targetPoint"/>
                    </mxGeometry>
                </mxCell>
                <mxCell id="m7QaNfk4z3ijhBNpgV-_-29" value="" style="endArrow=classic;html=1;strokeColor=#457B9D;fillColor=#A8DADC;fontColor=#1D3557;exitX=0.5;exitY=1;exitDx=0;exitDy=0;entryX=0.5;entryY=0;entryDx=0;entryDy=0;labelBackgroundColor=#F1FAEE;" parent="m7QaNfk4z3ijhBNpgV-_-1" source="m7QaNfk4z3ijhBNpgV-_-10" target="m7QaNfk4z3ijhBNpgV-_-21" edge="1">
                    <mxGeometry width="50" height="50" relative="1" as="geometry">
                        <mxPoint x="434" y="231" as="sourcePoint"/>
                        <mxPoint x="383.5" y="267" as="targetPoint"/>
                    </mxGeometry>
                </mxCell>
                <mxCell id="qFpNVSK5lVT6Y8uwD02a-8" style="edgeStyle=orthogonalEdgeStyle;curved=0;rounded=1;sketch=0;orthogonalLoop=1;jettySize=auto;html=1;exitX=0.5;exitY=1;exitDx=0;exitDy=0;exitPerimeter=0;entryX=0.5;entryY=0;entryDx=0;entryDy=0;entryPerimeter=0;strokeColor=#457B9D;fillColor=#A8DADC;fontColor=#1D3557;labelBackgroundColor=#F1FAEE;" parent="m7QaNfk4z3ijhBNpgV-_-1" target="qFpNVSK5lVT6Y8uwD02a-1" edge="1">
                    <mxGeometry relative="1" as="geometry">
                        <mxPoint x="231.75" y="493" as="sourcePoint"/>
                    </mxGeometry>
                </mxCell>
                <mxCell id="qFpNVSK5lVT6Y8uwD02a-3" style="edgeStyle=orthogonalEdgeStyle;rounded=0;orthogonalLoop=1;jettySize=auto;html=1;exitX=1;exitY=0.5;exitDx=0;exitDy=0;exitPerimeter=0;strokeColor=#457B9D;fontColor=#1D3557;entryX=0;entryY=0.5;entryDx=0;entryDy=0;labelBackgroundColor=#F1FAEE;" parent="m7QaNfk4z3ijhBNpgV-_-1" source="qFpNVSK5lVT6Y8uwD02a-1" target="r0FleYOnsrBz2lOcBHcy-0" edge="1">
                    <mxGeometry relative="1" as="geometry">
                        <mxPoint x="282" y="586" as="targetPoint"/>
                    </mxGeometry>
                </mxCell>
                <mxCell id="qFpNVSK5lVT6Y8uwD02a-7" style="edgeStyle=orthogonalEdgeStyle;curved=0;rounded=1;sketch=0;orthogonalLoop=1;jettySize=auto;html=1;exitX=0.5;exitY=1;exitDx=0;exitDy=0;exitPerimeter=0;strokeColor=#457B9D;fillColor=#A8DADC;fontColor=#1D3557;entryX=0.5;entryY=0;entryDx=0;entryDy=0;labelBackgroundColor=#F1FAEE;" parent="m7QaNfk4z3ijhBNpgV-_-1" source="qFpNVSK5lVT6Y8uwD02a-1" target="r0FleYOnsrBz2lOcBHcy-3" edge="1">
                    <mxGeometry relative="1" as="geometry">
                        <mxPoint x="230" y="639" as="targetPoint"/>
                    </mxGeometry>
                </mxCell>
                <mxCell id="qFpNVSK5lVT6Y8uwD02a-1" value="系统用户" style="strokeWidth=2;html=1;shape=mxgraph.flowchart.decision;whiteSpace=wrap;fillColor=#A8DADC;strokeColor=#457B9D;fontColor=#1D3557;" parent="m7QaNfk4z3ijhBNpgV-_-1" vertex="1">
                    <mxGeometry x="192.5" y="538" width="78.5" height="61" as="geometry"/>
                </mxCell>
                <mxCell id="qFpNVSK5lVT6Y8uwD02a-4" value="是" style="text;html=1;align=center;verticalAlign=middle;resizable=0;points=[];autosize=1;fontColor=#1D3557;" parent="m7QaNfk4z3ijhBNpgV-_-1" vertex="1">
                    <mxGeometry x="202.75" y="610" width="22" height="17" as="geometry"/>
                </mxCell>
                <mxCell id="qFpNVSK5lVT6Y8uwD02a-5" value="否" style="text;html=1;align=center;verticalAlign=middle;resizable=0;points=[];autosize=1;fontColor=#1D3557;" parent="m7QaNfk4z3ijhBNpgV-_-1" vertex="1">
                    <mxGeometry x="273.75" y="545" width="22" height="17" as="geometry"/>
                </mxCell>
                <mxCell id="qFpNVSK5lVT6Y8uwD02a-18" style="edgeStyle=orthogonalEdgeStyle;curved=0;rounded=1;sketch=0;orthogonalLoop=1;jettySize=auto;html=1;exitX=0.5;exitY=1;exitDx=0;exitDy=0;exitPerimeter=0;entryX=0.5;entryY=0;entryDx=0;entryDy=0;strokeColor=#457B9D;fillColor=#A8DADC;fontColor=#1D3557;labelBackgroundColor=#F1FAEE;" parent="m7QaNfk4z3ijhBNpgV-_-1" source="qFpNVSK5lVT6Y8uwD02a-14" target="qFpNVSK5lVT6Y8uwD02a-16" edge="1">
                    <mxGeometry relative="1" as="geometry"/>
                </mxCell>
                <mxCell id="qFpNVSK5lVT6Y8uwD02a-14" value="开始" style="strokeWidth=2;html=1;shape=mxgraph.flowchart.terminator;whiteSpace=wrap;rounded=0;sketch=0;fillColor=#A8DADC;fontColor=#1D3557;strokeColor=#457B9D;" parent="m7QaNfk4z3ijhBNpgV-_-1" vertex="1">
                    <mxGeometry x="203" y="398" width="63" height="26" as="geometry"/>
                </mxCell>
                <mxCell id="r0FleYOnsrBz2lOcBHcy-7" style="edgeStyle=orthogonalEdgeStyle;curved=0;rounded=1;sketch=0;orthogonalLoop=1;jettySize=auto;html=1;exitX=0.5;exitY=1;exitDx=0;exitDy=0;entryX=0;entryY=0.5;entryDx=0;entryDy=0;strokeColor=#457B9D;fillColor=#A8DADC;fontColor=#1D3557;labelBackgroundColor=#F1FAEE;" parent="m7QaNfk4z3ijhBNpgV-_-1" source="qFpNVSK5lVT6Y8uwD02a-15" target="r0FleYOnsrBz2lOcBHcy-3" edge="1">
                    <mxGeometry relative="1" as="geometry"/>
                </mxCell>
                <mxCell id="qFpNVSK5lVT6Y8uwD02a-15" value="用户收藏数据" style="rounded=0;whiteSpace=wrap;html=1;sketch=0;strokeColor=#457B9D;fillColor=#A8DADC;fontColor=#1D3557;" parent="m7QaNfk4z3ijhBNpgV-_-1" vertex="1">
                    <mxGeometry x="81" y="468" width="84" height="42" as="geometry"/>
                </mxCell>
                <mxCell id="qFpNVSK5lVT6Y8uwD02a-16" value="输入框数据" style="rounded=0;whiteSpace=wrap;html=1;sketch=0;strokeColor=#457B9D;fillColor=#A8DADC;fontColor=#1D3557;" parent="m7QaNfk4z3ijhBNpgV-_-1" vertex="1">
                    <mxGeometry x="192.5" y="468" width="84" height="40" as="geometry"/>
                </mxCell>
                <mxCell id="r0FleYOnsrBz2lOcBHcy-8" style="edgeStyle=orthogonalEdgeStyle;curved=0;rounded=1;sketch=0;orthogonalLoop=1;jettySize=auto;html=1;exitX=0.5;exitY=1;exitDx=0;exitDy=0;entryX=0.5;entryY=0;entryDx=0;entryDy=0;strokeColor=#457B9D;fillColor=#A8DADC;fontColor=#1D3557;labelBackgroundColor=#F1FAEE;" parent="m7QaNfk4z3ijhBNpgV-_-1" source="qFpNVSK5lVT6Y8uwD02a-17" target="r0FleYOnsrBz2lOcBHcy-0" edge="1">
                    <mxGeometry relative="1" as="geometry"/>
                </mxCell>
                <mxCell id="qFpNVSK5lVT6Y8uwD02a-17" value="数据库文章数据" style="rounded=0;whiteSpace=wrap;html=1;sketch=0;strokeColor=#457B9D;fillColor=#A8DADC;fontColor=#1D3557;" parent="m7QaNfk4z3ijhBNpgV-_-1" vertex="1">
                    <mxGeometry x="307.5" y="468" width="92" height="40" as="geometry"/>
                </mxCell>
                <mxCell id="r0FleYOnsrBz2lOcBHcy-6" style="edgeStyle=orthogonalEdgeStyle;curved=0;rounded=1;sketch=0;orthogonalLoop=1;jettySize=auto;html=1;exitX=0.5;exitY=1;exitDx=0;exitDy=0;entryX=1;entryY=0.5;entryDx=0;entryDy=0;strokeColor=#457B9D;fillColor=#A8DADC;fontColor=#1D3557;labelBackgroundColor=#F1FAEE;" parent="m7QaNfk4z3ijhBNpgV-_-1" source="r0FleYOnsrBz2lOcBHcy-0" target="r0FleYOnsrBz2lOcBHcy-5" edge="1">
                    <mxGeometry relative="1" as="geometry"/>
                </mxCell>
                <mxCell id="r0FleYOnsrBz2lOcBHcy-9" style="edgeStyle=orthogonalEdgeStyle;curved=0;rounded=1;sketch=0;orthogonalLoop=1;jettySize=auto;html=1;exitX=0.5;exitY=1;exitDx=0;exitDy=0;entryX=1;entryY=0.5;entryDx=0;entryDy=0;strokeColor=#457B9D;fillColor=#A8DADC;fontColor=#1D3557;labelBackgroundColor=#F1FAEE;" parent="m7QaNfk4z3ijhBNpgV-_-1" source="r0FleYOnsrBz2lOcBHcy-0" target="r0FleYOnsrBz2lOcBHcy-3" edge="1">
                    <mxGeometry relative="1" as="geometry"/>
                </mxCell>
                <mxCell id="r0FleYOnsrBz2lOcBHcy-0" value="数据热度排序" style="rounded=0;whiteSpace=wrap;html=1;sketch=0;strokeColor=#457B9D;fillColor=#A8DADC;fontColor=#1D3557;" parent="m7QaNfk4z3ijhBNpgV-_-1" vertex="1">
                    <mxGeometry x="307.5" y="548.5" width="92" height="40" as="geometry"/>
                </mxCell>
                <mxCell id="r0FleYOnsrBz2lOcBHcy-10" value="" style="edgeStyle=orthogonalEdgeStyle;curved=0;rounded=1;sketch=0;orthogonalLoop=1;jettySize=auto;html=1;strokeColor=#457B9D;fillColor=#A8DADC;fontColor=#1D3557;entryX=0.5;entryY=0;entryDx=0;entryDy=0;labelBackgroundColor=#F1FAEE;" parent="m7QaNfk4z3ijhBNpgV-_-1" source="r0FleYOnsrBz2lOcBHcy-3" target="r0FleYOnsrBz2lOcBHcy-5" edge="1">
                    <mxGeometry relative="1" as="geometry">
                        <mxPoint x="232" y="710" as="targetPoint"/>
                    </mxGeometry>
                </mxCell>
                <mxCell id="r0FleYOnsrBz2lOcBHcy-3" value="数据筛选排序" style="rounded=0;whiteSpace=wrap;html=1;sketch=0;strokeColor=#457B9D;fillColor=#A8DADC;fontColor=#1D3557;" parent="m7QaNfk4z3ijhBNpgV-_-1" vertex="1">
                    <mxGeometry x="195.13" y="666" width="73.25" height="37" as="geometry"/>
                </mxCell>
                <mxCell id="r0FleYOnsrBz2lOcBHcy-13" style="edgeStyle=orthogonalEdgeStyle;curved=0;rounded=1;sketch=0;orthogonalLoop=1;jettySize=auto;html=1;exitX=0.5;exitY=1;exitDx=0;exitDy=0;strokeColor=#457B9D;fillColor=#A8DADC;fontColor=#1D3557;labelBackgroundColor=#F1FAEE;" parent="m7QaNfk4z3ijhBNpgV-_-1" source="r0FleYOnsrBz2lOcBHcy-5" target="r0FleYOnsrBz2lOcBHcy-11" edge="1">
                    <mxGeometry relative="1" as="geometry"/>
                </mxCell>
                <mxCell id="r0FleYOnsrBz2lOcBHcy-5" value="用户结果集" style="rounded=0;whiteSpace=wrap;html=1;sketch=0;strokeColor=#457B9D;fillColor=#A8DADC;fontColor=#1D3557;" parent="m7QaNfk4z3ijhBNpgV-_-1" vertex="1">
                    <mxGeometry x="195.13" y="756" width="73.25" height="37" as="geometry"/>
                </mxCell>
                <mxCell id="r0FleYOnsrBz2lOcBHcy-11" value="结束" style="strokeWidth=2;html=1;shape=mxgraph.flowchart.terminator;whiteSpace=wrap;rounded=0;sketch=0;fillColor=#A8DADC;fontColor=#1D3557;strokeColor=#457B9D;" parent="m7QaNfk4z3ijhBNpgV-_-1" vertex="1">
                    <mxGeometry x="200.25" y="822" width="63" height="26" as="geometry"/>
                </mxCell>
                <mxCell id="bFU2xB7Pr_dC1taCSQEl-0" value="&amp;nbsp; &amp;nbsp; &amp;nbsp; &amp;nbsp;系统用户" style="text;html=1;align=center;verticalAlign=middle;resizable=0;points=[];autosize=1;fontColor=#1D3557;" vertex="1" parent="m7QaNfk4z3ijhBNpgV-_-1">
                    <mxGeometry x="253" y="656" width="82" height="17" as="geometry"/>
                </mxCell>
                <mxCell id="bFU2xB7Pr_dC1taCSQEl-4" value="操作" style="text;html=1;align=center;verticalAlign=middle;resizable=0;points=[];autosize=1;fontColor=#1D3557;" vertex="1" parent="m7QaNfk4z3ijhBNpgV-_-1">
                    <mxGeometry x="268.38" y="162" width="34" height="17" as="geometry"/>
                </mxCell>
            </root>
        </mxGraphModel>
    </diagram>
</mxfile>